{"title":"Rocko Ft. Future &amp; Rick Ross - U.O.E.N.O. [Music Video] 1080","uid":8927631,"size":171307908,"categoryP":"video","categoryS":"music_videos","magnet":"?xt=urn:btih:f7498391d50cc959839cc35343fec87acaff4252&amp;dn=Rocko+Ft.+Future+%26amp%3B+Rick+Ross+-+U.O.E.N.O.+%5BMusic+Video%5D+1080&amp;tr=udp%3A%2F%2Ftracker.openbittorrent.com%3A80&amp;tr=udp%3A%2F%2Fopen.demonii.com%3A1337&amp;tr=udp%3A%2F%2Ftracker.coppersurfer.tk%3A6969&amp;tr=udp%3A%2F%2Fexodus.desync.com%3A6969","seeders":2,"leechers":0,"uploader":"Sbyky","files":1,"time":1379392912,"description":"[IMG]http://cdn.piczend.com/images/DYW8siSj/1379384535_uoeno.jpg[/IMG]\n\nGeneral\nComplete name                            : Rocko Ft. Future &amp; Rick Ross - U.O.E.N.O. [Music Video] 1080p [Sbyky].mp4\nFormat                                   : MPEG-4\nFormat profile                           : Base Media / Version 2\nCodec ID                                 : mp42\nFile size                                : 163 MiB\nDuration                                 : 4mn 17s\nOverall bit rate mode                    : Variable\nOverall bit rate                         : 5 326 Kbps\nEncoded date                             : UTC 2013-09-13 01:47:40\nTagged date                              : UTC 2013-09-13 01:47:40\n\nVideo\nID                                       : 1\nFormat                                   : AVC\nFormat/Info                              : Advanced Video Codec\nFormat profile                           : &lt;a class=&quot;__cf_email__&quot; href=&quot;/cdn-cgi/l/email-protection&quot; data-cfemail=&quot;6b23020c032b275f455b&quot;&gt;[email&amp;#160;protected]&lt;/a&gt;&lt;script cf-hash='f9e31' type=&quot;text/javascript&quot;&gt;\n/* &lt;![CDATA[ */!function(){try{var t=&quot;currentScript&quot;in document?document.currentScript:function(){for(var t=document.getElementsByTagName(&quot;script&quot;),e=t.length;e--;)if(t[e].getAttribute(&quot;cf-hash&quot;))return t[e]}();if(t&amp;&amp;t.previousSibling){var e,r,n,i,c=t.previousSibling,a=c.getAttribute(&quot;data-cfemail&quot;);if(a){for(e=&quot;&quot;,r=parseInt(a.substr(0,2),16),n=2;a.length-n;n+=2)i=parseInt(a.substr(n,2),16)^r,e+=String.fromCharCode(i);e=document.createTextNode(e),c.parentNode.replaceChild(e,c)}}}catch(u){}}();/* ]]&gt; */&lt;/script&gt;\nFormat settings, CABAC                   : Yes\nFormat settings, ReFrames                : 1 frame\nCodec ID                                 : avc1\nCodec ID/Info                            : Advanced Video Coding\nDuration                                 : 4mn 17s\nBit rate                                 : 5 132 Kbps\nMaximum bit rate                         : 14.3 Mbps\nWidth                                    : 1 920 pixels\nHeight                                   : 1 080 pixels\nDisplay aspect ratio                     : 16:9\nFrame rate mode                          : Constant\nFrame rate                               : 29.970 fps\nColor space                              : YUV\nChroma subsampling                       : 4:2:0\nBit depth                                : 8 bits\nScan type                                : Progressive\nBits/(Pixel*Frame)                       : 0.083\nStream size                              : 157 MiB (96%)\nTagged date                              : UTC 2013-09-13 01:48:08\n\nAudio\nID                                       : 2\nFormat                                   : AAC\nFormat/Info                              : Advanced Audio Codec\nFormat profile                           : LC\nCodec ID                                 : 40\nDuration                                 : 4mn 17s\nBit rate mode                            : Variable\nBit rate                                 : 192 Kbps\nMaximum bit rate                         : 202 Kbps\nChannel(s)                               : 2 channels\nChannel positions                        : Front: L R\nSampling rate                            : 44.1 KHz\nCompression mode                         : Lossy\nStream size                              : 5.89 MiB (4%)\nTitle                                    : IsoMedia File Produced by Google, 5-11-2011\nEncoded date                             : UTC 2013-09-13 01:47:58\nTagged date                              : UTC 2013-09-13 01:48:08\n\nShared By Sbyky\n[IMG]http://cdn.piczend.com/images/liRi6Opy/1379259598_say%20thanks%20preaching%201.gif[/IMG]\n[IMG]http://cdn.piczend.com/images/HVuSYSI4/1379259626_seeding%20preaching%201.gif[/IMG]","torrent":{"xt":"urn:btih:f7498391d50cc959839cc35343fec87acaff4252","amp;dn":"Rocko+Ft.+Future+%26amp%3B+Rick+Ross+-+U.O.E.N.O.+%5BMusic+Video%5D+1080","amp;tr":["udp%3A%2F%2Ftracker.openbittorrent.com%3A80","udp%3A%2F%2Fopen.demonii.com%3A1337","udp%3A%2F%2Ftracker.coppersurfer.tk%3A6969","udp%3A%2F%2Fexodus.desync.com%3A6969"],"infoHash":"f7498391d50cc959839cc35343fec87acaff4252","infoHashBuffer":{"type":"Buffer","data":[247,73,131,145,213,12,201,89,131,156,195,83,67,254,200,122,202,255,66,82]},"announce":[],"urlList":[]}}